/* XPM */
static char *_e96806648404b61f26dc34f0f7c5d70PDFazAJTMZj3iqqL[] = {
/* columns rows colors chars-per-pixel */
"64 64 142 2 ",
"   c #041A12",
".  c #0C1D15",
"X  c #121212",
"o  c #101E17",
"O  c #111E18",
"+  c #241400",
"@  c #281507",
"#  c #261A01",
"$  c #281C06",
"%  c #24170E",
"&  c #29160B",
"*  c #271D09",
"=  c #2A1D0D",
"-  c #241612",
";  c #241914",
":  c #2C1B12",
">  c #2F1E18",
",  c #311E15",
"<  c #15211C",
"1  c #18241F",
"2  c #3B250A",
"3  c #2D2213",
"4  c #2E221A",
"5  c #312416",
"6  c #3F2D13",
"7  c #33251A",
"8  c #342B1C",
"9  c #392D1D",
"0  c #3C311E",
"q  c #1A2621",
"w  c #1D2924",
"e  c #1F2C28",
"r  c #212E29",
"t  c #352E23",
"y  c #3B2C21",
"u  c #25322D",
"i  c #363222",
"p  c #3C3424",
"a  c #3F3925",
"s  c #3B332A",
"d  c #3D3B2C",
"f  c #273630",
"g  c #293731",
"h  c #2D3B35",
"j  c #313E37",
"k  c #3F3E32",
"l  c #323F39",
"z  c #463106",
"x  c #46320D",
"c  c #49340B",
"v  c #443314",
"b  c #483713",
"n  c #4C3B14",
"m  c #473919",
"M  c #4B3C1C",
"N  c #503E16",
"B  c #503F18",
"V  c #413523",
"C  c #433A25",
"Z  c #493C25",
"A  c #443D2A",
"S  c #493F29",
"D  c #423D32",
"F  c #3E4235",
"G  c #33403B",
"H  c #3F4538",
"J  c #54461F",
"K  c #59461A",
"L  c #4C4125",
"P  c #45412D",
"I  c #4C452D",
"U  c #524522",
"Y  c #564A26",
"T  c #5C4D22",
"R  c #51472B",
"E  c #524A2C",
"W  c #594F2C",
"Q  c #5B512E",
"!  c #444435",
"~  c #4B4632",
"^  c #4C4A34",
"/  c #434638",
"(  c #46493A",
")  c #4A4D3C",
"_  c #534E34",
"`  c #514F38",
"'  c #4D513E",
"]  c #565335",
"[  c #5B5434",
"{  c #5E5936",
"}  c #53543C",
"|  c #59563B",
" . c #54583F",
".. c #5B5A3D",
"X. c #605A36",
"o. c #625B3A",
"O. c #4F5541",
"+. c #515641",
"@. c #555A43",
"#. c #595D45",
"$. c #5B5F48",
"%. c #625E44",
"&. c #5E6046",
"*. c #5D624B",
"=. c #626146",
"-. c #61644E",
";. c #66644E",
":. c #69634C",
">. c #636753",
",. c #646752",
"<. c #676752",
"1. c #646754",
"2. c #6A6752",
"3. c #666852",
"4. c #646855",
"5. c #686956",
"6. c #6B6A57",
"7. c #676B58",
"8. c #696B5B",
"9. c #686C5A",
"0. c #6B6C5A",
"q. c #6F6C5B",
"w. c #6B6D5D",
"e. c #6C6E5E",
"r. c #706956",
"t. c #756B5C",
"y. c #726D5C",
"u. c #776D5F",
"i. c #706F61",
"p. c #786F64",
"a. c #6C7061",
"s. c #6F776B",
"d. c #6F786B",
"f. c #737163",
"g. c #717364",
"h. c #737364",
"j. c #727465",
"k. c #727566",
"l. c #7A7063",
"z. c #7E706A",
"x. c #70796C",
"c. c #6A7A73",
/* pixels */
"/ +.w.w.*.( #.#.4.8.-.@.' $.@.' #.' O.+.-.@./ 1.*.F ) ) 4.4.-.7.#.H @.>.e.a.e.4.4.9.*.' ) k H @./ ( H 4.1.*.*.*.-.*.@.' l @.5.l ",
"@.l O.-.-.O.F k +.) @.) O.-.F / } D O.#.>.-.@.) ) >.#.*.+.>.O.4.*.+.O.( ' #.-.*.' >.8.@.*.#.#.@.#.+.' 4.-.@.-.#.4.9.) d %.3.9.+.",
"-.' F *.( F H ) F >.#.#.O.l ( i 3 0 @.7.@.@.) -.@.#./ @.#.>.@.+.O.*.#./ g   < u *.1.*.' @.O.O.@.@.*.#.O.#.' >.-.4.4.| 5 5 _ 4.*.",
"-./ ( / l *.+.) #.-.-.-.#.( @.t $ 3 A -.#.) H #.( +.+.$.$.O.@.O.>.O.+./ k h X w *.-./ ) *.' ' -.1.-.-.@.w.#.' ^ _ } } A 3 ^ @.4.",
"5.9.@.' +.#.O.) ) ' *.#.@.' $...~ | } @.-.#.@.@.( #.4.5.*.-.@.O.@.@.-.( / w . 1 $.@.@.>.>.@.) @.*.@.1.#.-.( ! 8 5 C ^ 9 3 8 >.w.",
"7.+./ *.7./ h ' ( ! / +.F +.7.@.@.( ! a 8 A A O.( @.O.O.+.' / O h 1 w.) #.*.) ( #.=.=.5.>.1.@.O.' H ) ) -.@.k 0 # = a ( +.>.#.>.",
"4.) ( w.5.@.h I z b $.-.-.-.-.O.@.*.} 3 # 3 9 ) -.$.) $.) (   X X h 7.-.@.#.+.@.;.j.s.9.*.@.#.*.1.@.' >.*.@.} V 0 Z _ -.#.O.+.' ",
"/ @.-./ l r s v x K %.} -.*.#.4.4.1.} a 5 5 8 ' #.' @.*.@.q X X   X #.#.) *.*.' #.i.9.4.,.( O.-.#.' / ' #.@.! } ~ #.-.*.-.-.*.@.",
"F $.#.u <   q w @.u.l.2.$.-.-.e.4.@./ ' | S Z -.@.@.#.-.#.*.< r u h ) ( @.) f u H @.! ! A ~ ! / / ) / O.+.' ( ) F ( >.-.' ( ) +.",
"O.7.7.G r < q . D y.t.-.@.1.4.7.7.1.@.O.-.,.-.>.*.-.4.*.@.@.h ' #.=.5.3...e     h #.! 7 # : S ^ | @.~ F F ) +.9.f.=.@.@.@.H l ( ",
"7.e.7.@.O.l h u g | %.} *.@.>.e.>.>.-.-.@.O.@.4.O.#.@.+.H ) ( ( =.j.f.e.#.s 8 0 L E S 7 & @ V ~ 7 V 7 s @.@.4.j.d.a.@.@.F F ) -.",
"*.$.@.) @.' @.-.W L D ( ' @.' -.1.1.-.4.*.@.O.@.@.@.@.O.( +.+.@.y.f.5.e.;.] c c c m ^ ^ ~ D } } 7 7 @ @ ( l O.;.g.j.,.@.@.F #.7.",
"@.O./ ) / *.@.$.Q n L ) ( -.#.-.@.#.' @.@.' -.+.#.#.+.*.$.) @.4.*.q.*.;.4.} U n v n ! / F w u ) #.y , 7 ,.( ( =.i.p.-.+.+.O.#.-.",
"@.@.' / / $.#.O.#.| } *.-.8.9.-.#.*.#.d r u ` g ) ) @.) ' ( *.9.#.@.*.&.@.=.! ` Z Y d < X     ( @.*.+.) -.f.g.+.@.( D h / ) @.@.",
"-.*.@.' O.>.$.O.) @.*.$.-.>.4.@.@.@.D ; + + 1 1 l / $.*.&.8.e.+.*.@.O.g.y.8.) ( @.*.O.< . X < h ) ' ) +.e.p.c.@.g w l ' F ) O.) ",
"g ) $.#.F $.4.+.-.*.) ) #.) @.#.O.( e   + + % o < H / ,.8.j.f.q.( @.-.[ { 2.) +.$.*.k w < < ) @.*.$.) ( ( >.,.' q   ) @.( @.' / ",
") F ) *.@.#.@.@.' O.' @.*.*.( ' O.l u w - % t q < g / O.;.g.j.j.g.-.S # = =.-.@.#.1.w.j.e.-.@.@.@.) r q g @.$.( w q @.@.) @.@.4.",
"1.4.] i d $.' / ' @.@.O.$.*.#.F @.@.@.O.@.&./ h l h O.$.@.| :.#.( O.8 # = C &.@.+.>.@.,.w.>.-.@.( j .   O l $.' / ) $.#.h ' -.*.",
">.I 3 # i ) *.H H @.@.O.$.O.+.$.+./ -.@.&.#.=.-.*.F ( ) @.( ..^ / ( ) p I C &.7.-.) #.p.j.y.#.O.$.g < q r g 1.@.' @.1.*.F @.@.*.",
"F 7 # 3 a @.*.@.( #.1.-.O.O.' ) -.) } ) #.t.r.5.*.) l h j / ' @./ / h ^ $.#.-.4.-.l / +.( ) O.( @.+.' ) H ' #.#.#.@.l @.} / ( @.",
") } 8 C ^ ' ' O.' ) +.*.@.#.@.I E C I d ..=.5.,.@.#.( F ) ( ) / e   X   G #.) F H ) F h 8 8 V a O.#.@.+.( ) @.O.@.} } =.=.' O.*.",
"@.' ' #.#.*.5.@.*.+.) ) +.*.>.8 9 8 V / ( ) >.' -.*.-.#.+.@.' @.O X X X u $.@.) #.>.@.' y # 8 ~ #.*.1.*.' @.$.$.-.*.5.g.f.O.$.1.",
">.#.) / O.5.p.=.#.7.1.-.' ) 3.` C 8 5 A -.$.' *.*./ @.} 9 9 ~ d 1   X . 1 ( @.*.>.1.*.@.O.*.V i -.7.*.O.4.*.+.) #.@.-.j.-.H 7.e.",
">.9.@.@.#.:.r.t.#.1.-.@.O.O.*.O.} A Z ` >./ #.@.) +...9 # 2 v b E ^ l @.-.>.O./ ) >.>.>.@.$.@.$.$.9.4.*.*.5.@.>.( ' >.9.-.) 4.1.",
"4.#.+.*.@.^ } @.-.1.O.! D G ) / ( *.-.*.+./ @.-.( O.%.C 8 6 x x x L @.*.a.-.@.-.) O.>.-.) *.( +.) ( @.-.$.#.) ) ) ( *.>.5.4.*.' ",
"$.w.4.*.@.' ' ) F ( w < < r ( u q ) 8.9.$.! D } / -.>.$.-.@.E b K W =.e.*.>.4.j.-.@.*.) ' #.( *.*.) ' -.' ( / @.) O.' -.@.@.O.#.",
") $.*.4.$.-.O.e . < ; + +   w   X r #.7.$.C 7 7 p 4.#.@.@.@.>.} 5.e.f.c.) ;.s.c.,.#.@.O.@.) / $.O.) #.@.} ^ | -.#.@.1.#.#.-./ ( ",
"' -.4.-.*.+.>.( w o + + + + 1 < < ( ) @.( t # # * a @.F k ' 9.@.} ,.j.2.#.1.#.e.7.4.-.*.*.O.O.( g h l F 7 * 7  .+.@.+.-.-.>.@.+.",
"( ) @.#.*.*.@.F ) @.( u e @.h q < g #.8.#.*.P 3 # V ! #.#.9.w.@.) ) -.+.#.9.9.O.#.$.4.4.@.O.q q   < . . a = 9 _ #.#.@.' -.>.@.) ",
"w.-.O.) ( #.a i ^ -.4.5.4.1.-.*.@.-.j.j.-.-.*.=.} @.( O.( -.@.' *.) ( -.4.4.+.( ' #.*.-.) } q   < <   q h ~ -.-.*.#.O.O.( / @.7.",
"-.9.-./ *.A $ # d O.9.9.9.*.8.5.f.g.j.e.4.4.#.+.*.) 1.*.#.$.A A -.) ) 5.@.*.O.O.( @.@.@.D } D h h u . u / ( @.*.+.O.} ' #.@.@.-.",
"F +.@.( 7.E 3 7 ^ -.H / *.O.e.y.f.s.e.} #.' ' ' j #.@.( ( 4.I 7 C 7.8.5.-.9.4.4.4.>.O.O.7 y } ) l h u w ' g ) -.-...p a #.4.*.( ",
"#.H @.1.e.e.R [ -.9.*.' ) k } 8.i.5.} 4.1.*.*.*.-.*.#.' l @.-.s D O.w.w.*.( #.#.4.8.-.@.! } @.' #.' O.+.-.@./ -.C : # # ,.4.-.7.",
"*.+.O.) ' #.=.,.-.>.8.@.*.#.#.*.3.;.O.4.-.@.-.$.9.f.#.^ 9.a.9.+.@.l O.-.-.O.F k +.) @.) #.,.F / #.F O.#.>.-.@.( 8 # # $ ^ >.O.4.",
"O.*.#.( H @.' ) *.>.*.' @.O.O.@.@.*.#.O.#.' >.-.9.g.i.>.@.9.4.*.-.' F *.( F H ) F >.#.*.j.j.( ( / -.-.7.@.@.) -.A $ # a } >.@.+.",
">.O.+./ F / ' +.^ Z p ! *.' ' -.>.-.*.G $.F ) #.7.y.e.-.#.O.@.4.-./ ( / l *.+.) #.-.-.w.w.e.@.F ) @.@.7.#.) H #.a a p } $.O.@.O.",
"#.@.-.( ' +.( ! ~ 7 9 #.>.@.) @.*.@.-.1 r w F h @.5.,.{ S I [ 9.5.9.@.' +.#.+.' ) ' *.#.+.) *.$.$.4.#.#.-.#.@.@.( f.p.5.*.-.@.+.",
"@.4.w.) #.*.P d ! 7 5 | >.>.@.O./ < e . g e l $.O.G ( Z b n c o.7.+./ *.1.g f ( ( ! / O.D O.7.@.,.2.=.=./ } } O.5.c.j.O.O.' @.1.",
"l *.8.-.} I # 3 ~ A A ~ ` 9 ~ C #.<   <   l ' #.#.#.,.{ n c c x | F ( 7.) X . w ) O.$.J ..-.-.O.;.g.p.f.#.} @.) ,.j.=.$.) O.#.1.",
"F ) >.#./ p 9 8 +.1.@.*.| # 3 9 @.) h / } y & : & : *.*./ p I q w w ( / 1 X   r F #.) m N ..#.4.4.4.5.2.o._ -.O.#.#.@.*.@.@.) -.",
"/ F ) / @.*.4.#.' @.F ( O.^ i # 8 ) 8 * 8 a > @ + @ & *.h O < X X <   u l w / u P T X...| *.-.e.4.@./ ^ } #.-.-.@.#.#.-.$.-.' @.",
"@.F ) @.@.) @.+.@.#./ ( ) @.*.a Z #.' 8 8 t : : [ f.5.&.O.f < 1 O 1 w g ( ( ' I b c U @.@.1.4.7.7.1.@.O.-.4.-.-.@.*.5.3.*.#.F O.",
"+.*.' ( O./ ( >.7.#.8 3 ! +.-.#.-.@.A 3 * 4 O   O } #.~ d F ) -.4.7.5.@.O.) / U c x R ' *.@.>.e.>.>.-.-.@.O.+.$.) @.;.9.#.) ( / ",
"4.#.' / f u h >.-.a 3 # ! ) $.-.4.-.) ( / q .   f :.y.L p F #.7.*.$.@.) @.A 7 Z J M d ( ' @.' -.1.1.-.4.*.@.l f ( #.5.s.=.} +.+.",
"#.4.@.) <   q ) / } ! ^ @.( / @.$.-.>.9.*.g e O   - 7 7 C +.#.-.@.O./ ) A y : & Z } ( ' ) -.@...} @.' @.@.' ' h ' #.,.e.*.) @.4.",
"#.@.*./ r q r ! k #.$.*.O.#./ ( #.*.@.#.y.9.4.#.+.F H h / ) +.@.@.@.' / / } } ^ *.@.-.i.,.-.#.#.#.$.#.) / -.>.+.) l / D h k $.9.",
"*.@.O.( *.' ) p V #.-.( ( O.( j ' ' ) 5.c.g.j.4.@./ ( ' q q / ( -.*.@.' O.>.$.+.) *.a.j.g._ 9 I @.@.( 1 q -.@.' F < O < . ( 7.) ",
"/ @.-./ / F ) ~ 9 I ' ( F ) @.@.*.>.>.#.;.e.j.9.' ) $.u     w u g ) $.#.F $.4.+.-.-.@.@.=.^ ^ } ' H . .   +./ H u <     < 1 +.' ",
"-.-.1.*.-.@.-.@.#.>.*.*.$.-.#.@.#.1.-.$.*.*.4.,.>.( *.) < < < 1 g F ) *.@.#.#.#.' O.' @.*.*.A p y 7 r ( / ' +.( F ) k F H O.#.#.",
"/ O.k ' >.-.4.@.+.>.@.+.5.d.f.@.) @.1.*.@.-.$.@.*.@.*.#.u l ) ) $.5.>./ / #.) / ! | e.O.$.$.~ : @ @ V #.*.-.( / @.#.#.#.) / ( ) ",
"/ ) ' @.-.i.s.g.-.) ) *.e.f.9.O.*.( ) ( / @.1.@.' @.1.*.G @.@.$.>.*.@.+.) ) *.d = 8 5.e.k < u y : 3 S ~ #.8.*.i.*.F ( ) @.( F j ",
"( ( / $.*.4.c.g.5.l / H h F ) ( @.@.#.@./ O.#.#.#.@.j ' ) ! } *.( ( F @.) @.*.0 # = ..) w . <   7 5 P ( / s.g.f.>.} l h j / ' #.",
"4.#.H l ) #.+./ H ) h w O r #.( a ^ ^ +.( ) @.O.@.O.( k ) } e.j.=.$.' *.) ' ' +.8 p } @.) l . . t # 9 j #.;.e.c.8.-.( F ) ( ' 8.",
") @.#.*.-.>.@.) #.>.) w X l -.P 8 # >.*.' @.$.5.w.5.8.O.@.O.3.d.9.' } V = 9 _ @...} ( ( } *.>.} | #.*.#.f.f.q.,.e.4.-.#.@.@.' -.",
"*.@.' #.#.@./ O.-.>.@.g u $.&.A # # #.O.4.*.+.=.d.9.#.1.' ( f.z.i.#.) ! i C 4.@.@.,.I 8 9 P =.J c Y ( @.j.i.+.*.,.} @.>.#.#.#.' ",
"4.@.O.*.( .     r F ( >.+.] U L 3 &.1.*.*.5.@.>.( -.4.-.$.( 4.1.>.8.@.P 3 * p $.#.>...0 p ) W c c Y $.*.w.} #.@.) +.>.*.) ( #.' ",
"' ' O.O.w   X   X < ' -.( Q b M ~ ( @.-.$.#.) ) ) / k F ( @.$.' 4.#.+.*.@.( #.4.7.q.` 8 3 p O.Z M ..-.*.@./ @.-.( ' ) ' ( ' $.( ",
"#.F / } ! u 1 < . q F ^ ' ] m B [ ) ' -.' ) / @.) / w . < u ) #.$.w.4.*.@.@.5.j.s.g.c.e.! ! @.' ^ 5.8.9.$.( / #.( +.u < -.#.+.+.",
">.} i 8 a ) ' *.O.+.' O.@.~ Z Y ^ ) #.@.#.*.-.-.#.( < . q w u ( ) $.*.4.$.,.2.q.g.x.j.e.' *.#.O./ ' #.@.( / l / ( O.. X @.@.>.@.",
") 9 + # V 1.F *.4.4.9.*.5.@.+.#.+.( @.>.) -.@.@.O.) u ( @.*.^ ' ) -.4.-.*.+.,.*.*.' @.( +.#.>.-.#.#.) h < < q ) / G < u l ' 9.@.",
") p 8 8 ^ 7.7.' #.$.c.p.f.;.' #./ #.#.>./ e u / O.#.@.' -...a a D ( @.#.*.*.@.F O.-.>.>.1.4.) @.-.) ) ) e . . l ' *./ @.#.9.w.@.",
">.) ( *.1.>.+.( ' #.9.f.j.g.-./ @.#.@.+.q   < q $.#.O.O./ p 5 # 9.-.O.) ) #.) ) O.-.4.5.4.1.4.9.4.#.#.@.@.g u ) +.@.( O.( -.@.' ",
"-.' ) 5.@.*.O.O.( @.@.$.5.5.} @.O.@.@.H f q   r O.O.@.O.#.C # = # 8.-./ *.O.) F F O.9.9.9.*.*.*.5.$.>.@.>.-.@.O.*.) 1.*.#.$.@.O.",
"+.9.8.5.-.9.4.4.4.>.O.O.O.>.#.' H O.( g ) r u @.-.*.@.) -.] V / F O.@.( 7.7.>.@.' -.H / *.O.( #.) ' / H #.' ' ' j #.@.( ( 5.>.+."
};
